<?xml version="1.0" encoding="UTF-8"?><svg id="_レイヤー_1" xmlns="http://www.w3.org/2000/svg" viewBox="0 0 39.52 51.02"><defs><style>.cls-1{fill:#1eb0ce;}</style></defs><path class="cls-1" d="m18.55,8.4C18.55,3.76,14.79,0,10.15,0S1.75,3.76,1.75,8.4s3.76,8.4,8.4,8.4,8.4-3.76,8.4-8.4Z"/><path class="cls-1" d="m39.07,32.41c0-2.92-2.36-5.28-5.28-5.28s-5.28,2.36-5.28,5.28,2.36,5.28,5.28,5.28,5.28-2.36,5.28-5.28Z"/><path class="cls-1" d="m22.41,34.2c-.8,1.75-3.11,6.17-7.65,3.76-2.77-1.61-1.93-8.29-1.93-8.29,0,0,.68-4.5,3.91-7,4.24-2.55,7.42,1.78,7.87,2.29-.37,5.66-2.2,9.23-2.2,9.23Zm-.85-26.5c1.87,1.5,2.92,3.54,3.62,7.39.71,3.85-.28,8.49-.28,8.49,0,0-2.26-1.75-2.58-1.92-.31-.17-4.1-2.26-7.47-.74-3.37,1.53-4.95,5.47-4.95,5.47-1.7,3.99-1.44,9.86,3.65,12.49,5.58,2.72,9.91-.71,11.61-3.31,1.7-2.61,2.95-7.39,2.95-7.39l4.02,3.79c.45.46.96.57,1.78-.19.85-.82-.11-1.7-.11-1.7,0,0-3.77-2.75-5.41-3.91.39-3.14,1.1-8.46-.99-13.7-1.94-4.84-5.07-6.37-6.71-7.14-1.64-.76-4.08-.9-5.27-.76-1.19.14-3.06.62-4.44,1.13-1.38.51-1.47,1.25-1.44,1.44.03.2.08.96,1.48,1.13,1.39.17,2.8-.91,2.8-.91,0,0,3.71-2.15,7.76.34Z"/><path class="cls-1" d="m3.27,51.02c-1.81,0-3.27-1.46-3.27-3.27s1.47-3.27,3.27-3.27,3.27,1.47,3.27,3.27-1.47,3.27-3.27,3.27Zm-.31-1.18c.44,0,.88-.02,1.07-.05.19-.03.36-.09.49-.16.16-.09.29-.23.38-.4.08-.17.13-.37.13-.59,0-.32-.08-.57-.24-.76-.15-.19-.37-.29-.65-.32.25-.07.31-.18.42-.33.11-.14.17-.34.17-.58,0-.19-.04-.36-.12-.5-.07-.15-.18-.26-.32-.35-.13-.07-.28-.12-.45-.16-.18-.03-.48-.05-.93-.05h-1.06v4.25h1.1Zm-.12-3.41h.22c.27,0,.44.04.53.1.09.06.14.18.14.34s-.05.26-.15.33c-.1.06-.28.09-.54.09h-.21v-.86Zm0,1.62h.5c.26,0,.43.04.53.1.1.07.15.2.15.37,0,.16-.05.27-.16.34-.1.07-.4.1-.65.1h-.37v-.93Z"/><path class="cls-1" d="m9.84,51.02c-1.81,0-3.27-1.46-3.27-3.27s1.47-3.27,3.27-3.27,3.27,1.47,3.27,3.27-1.47,3.27-3.27,3.27Zm-1.95-3.62v.44c0,.47.03.81.08,1.03.06.22.15.41.28.57.15.17.35.3.6.39.25.09.56.13.92.13s.67-.04.92-.13c.26-.09.46-.21.6-.39.13-.16.22-.35.28-.57.06-.22.08-.57.08-1.03v-2.25h-1.16v2.07c0,.3-.01.52-.03.66-.01.13-.04.24-.07.33-.05.11-.12.19-.24.25-.1.06-.24.09-.4.09s-.29-.03-.4-.09c-.11-.05-.18-.14-.23-.25-.04-.09-.06-.2-.08-.33,0-.13-.02-.35-.02-.66v-2.07h-1.16v1.81Z"/><path class="cls-1" d="m19.78,50.95h-6.62v-6.68h6.62v6.68Zm-4.16-1.1v-2.1c0-.11,0-.23-.02-.37,0-.14-.03-.29-.05-.47.08.18.16.34.23.47.07.14.12.22.16.27l1.6,2.19h1.12v-4.25h-1.12v2.1c0,.11,0,.23.02.37,0,.14.03.29.05.47-.09-.18-.17-.34-.24-.48-.07-.14-.12-.22-.15-.27l-1.6-2.18h-1.12v4.25h1.12Z"/><path class="cls-1" d="m23.12,51.02c-1.81,0-3.27-1.46-3.27-3.27s1.47-3.27,3.27-3.27,3.26,1.47,3.26,3.27-1.46,3.27-3.26,3.27Zm-.71-1.18v-1.91l1.39,1.91h1.45l-1.71-2.17,1.57-2.07h-1.35l-1.35,1.93v-1.93h-1.15v4.25h1.15Z"/><path class="cls-1" d="m29.68,51.02c-1.8,0-3.26-1.46-3.26-3.27s1.46-3.27,3.26-3.27,3.27,1.47,3.27,3.27-1.47,3.27-3.27,3.27Zm.48-1.18v-1.94l1.49-2.31h-1.34l-.56,1.09s-.01.02-.03.04c-.06.12-.1.22-.12.32-.03-.1-.07-.21-.13-.33-.01-.01-.02-.03-.02-.03l-.57-1.09h-1.33l1.48,2.31v1.94h1.12Z"/><path class="cls-1" d="m36.25,51.02c-1.81,0-3.27-1.46-3.27-3.27s1.47-3.27,3.27-3.27,3.27,1.47,3.27,3.27-1.46,3.27-3.27,3.27Zm2.16-4.16c-.11-.27-.27-.51-.49-.72-.21-.21-.46-.37-.74-.48-.28-.11-.57-.17-.88-.17s-.59.05-.87.17c-.28.11-.52.27-.73.48-.22.21-.39.45-.5.72-.11.27-.17.55-.17.86s.06.59.17.85c.11.27.28.51.5.72.21.21.45.37.73.48.27.11.57.17.87.17s.59-.06.87-.17c.28-.11.52-.27.74-.48.21-.21.38-.45.49-.72.12-.26.17-.55.17-.85s-.06-.59-.17-.86Zm-2.9,1.76c-.21-.24-.31-.54-.31-.9s.1-.66.31-.9c.21-.24.48-.35.8-.35s.58.12.8.35c.21.24.32.54.32.9s-.1.66-.32.89c-.21.24-.48.35-.8.35s-.59-.12-.8-.35Z"/></svg>